<?xml version="1.0" encoding="UTF-8"?>
<svg version="1.1" xmlns="http://www.w3.org/2000/svg" width="100" height="100">
<path d="M0 0 C2.24599495 1.43669429 4.36835124 2.95883208 6.48828125 4.57421875 C7.51953125 5.31671875 8.55078125 6.05921875 9.61328125 6.82421875 C18.009256 14.85515112 24.4036941 26.09403907 24.7265625 37.91796875 C25.03479302 52.19515087 23.34115622 62.9562726 14.48828125 74.57421875 C13.74578125 75.60546875 13.00328125 76.63671875 12.23828125 77.69921875 C4.20734888 86.0951935 -7.03153907 92.4896316 -18.85546875 92.8125 C-33.13265087 93.12073052 -43.8937726 91.42709372 -55.51171875 82.57421875 C-56.54296875 81.83171875 -57.57421875 81.08921875 -58.63671875 80.32421875 C-67.0326935 72.29328638 -73.4271316 61.05439843 -73.75 49.23046875 C-74.09621488 33.268876 -71.52255474 20.57278099 -60.48046875 8.3203125 C-44.65605391 -6.78741688 -19.24981736 -10.92719026 0 0 Z " fill="#071D51" transform="translate(74.51171875,6.42578125)"/>
<path d="M0 0 C1.6875 1.22265625 1.6875 1.22265625 3 3 C3.37109375 5.41796875 3.37109375 5.41796875 3.4375 8.1875 C3.90933851 15.05637988 5.70517277 20.23602947 10.9375 24.875 C15.46433141 28.01606669 18.62166454 29.00856013 24.0625 29.375 C27.31290285 29.66564705 28.80390981 29.87861084 31.625 31.625 C33.67654395 35.16857591 33.64830104 36.91570348 33 41 C28.80363482 51.39902174 21.96111468 58.11341544 12 63 C1.94282996 65.51429251 -7.34169228 64.9150286 -16.375 59.76171875 C-24.10683245 54.57264667 -28.80836988 47.97971375 -31.61328125 39.046875 C-33.26833864 30.28677326 -32.18347311 21.86021567 -28 14 C-23.19024889 7.0188037 -17.11464248 1.91740223 -8.95703125 -0.640625 C-5.79655551 -1.2209918 -3.1125737 -0.67910699 0 0 Z " fill="#0A2153" transform="translate(50,18)"/>
<path d="M0 0 C1.6875 1.22265625 1.6875 1.22265625 3 3 C3.37109375 5.41796875 3.37109375 5.41796875 3.4375 8.1875 C3.90933851 15.05637988 5.70517277 20.23602947 10.9375 24.875 C15.46433141 28.01606669 18.62166454 29.00856013 24.0625 29.375 C27.31290285 29.66564705 28.80390981 29.87861084 31.625 31.625 C33.67654395 35.16857591 33.64830104 36.91570348 33 41 C28.80363482 51.39902174 21.96111468 58.11341544 12 63 C1.94282996 65.51429251 -7.34169228 64.9150286 -16.375 59.76171875 C-24.10683245 54.57264667 -28.80836988 47.97971375 -31.61328125 39.046875 C-33.26833864 30.28677326 -32.18347311 21.86021567 -28 14 C-23.19024889 7.0188037 -17.11464248 1.91740223 -8.95703125 -0.640625 C-5.79655551 -1.2209918 -3.1125737 -0.67910699 0 0 Z M-23 12 C-28.75927904 20.25905122 -30.37023739 28.05088506 -29 38 C-26.82605455 46.47965858 -21.03222852 53.26562913 -13.75 57.9375 C-6.61067257 62.14970319 1.87734024 62.16011122 9.86328125 60.3515625 C18.61394548 57.1670284 24.93941403 51.49792688 29.1640625 43.21875 C30.41135173 39.90818794 30.4374021 37.49921683 30 34 C28.19627043 32.19627043 25.31769828 32.48518646 22.875 32.1875 C15.55996333 31.09104483 11.50480613 29.56173354 6.25 24.1875 C2.08525614 18.2874462 0.66727593 13.23427833 0.30859375 6.13671875 C0.18704432 3.78786362 0.18704432 3.78786362 -2 2 C-10.34827128 0.77231305 -17.81189493 6.00058632 -23 12 Z " fill="#E9EEEB" transform="translate(50,18)"/>
<path d="M0 0 C0.93423645 3.01031744 1.04449911 3.86650268 0 7 C-0.86237429 17.99880658 0.29818307 25.56719265 7.125 34.25 C12.71567155 40.27256893 20.1464543 43.1219782 28 45 C28 45.33 28 45.66 28 46 C19.23300617 46.82362155 13.90319347 44.88703869 7.05859375 39.4609375 C0.7906059 33.74799825 -3.64990828 25.77244247 -4.16796875 17.23046875 C-4.20506891 11.45026336 -4.16147139 6.40367848 -2 1 C-1.34 0.67 -0.68 0.34 0 0 Z " fill="#E8EDEA" transform="translate(22,35)"/>
<path d="M0 0 C3.0625 0.3125 3.0625 0.3125 5 1.4375 C6.0625 3.3125 6.0625 3.3125 5.9375 6.375 C5.0625 9.3125 5.0625 9.3125 2.0625 11.3125 C-1.25990324 10.9883631 -2.54526303 10.70473697 -4.9375 8.3125 C-5.1875 5.3125 -5.1875 5.3125 -4.9375 2.3125 C-2.9375 0.3125 -2.9375 0.3125 0 0 Z " fill="#D7E1DC" transform="translate(63.9375,56.6875)"/>
<path d="M0 0 C0.75 2.75 0.75 2.75 1 6 C-0.625 8.4375 -0.625 8.4375 -3 10 C-5.625 9.9375 -5.625 9.9375 -8 9 C-10 6 -10 6 -9.75 2.875 C-9.37875 1.451875 -9.37875 1.451875 -9 0 C-5.93109813 -1.53445094 -3.29905734 -0.54984289 0 0 Z " fill="#E6ECE9" transform="translate(52,64)"/>
<path d="M0 0 C0.66 0.66 1.32 1.32 2 2 C1.42307692 8.57692308 1.42307692 8.57692308 0 10 C-3.4375 10.25 -3.4375 10.25 -7 10 C-9 7 -9 7 -8.75 3.875 C-8.37875 2.451875 -8.37875 2.451875 -8 1 C-5.23749964 -0.38125018 -3.05268901 -0.19079306 0 0 Z " fill="#EBF0EE" transform="translate(40,33)"/>
<path d="M0 0 C3 0.25 3 0.25 5 2.25 C5.25 5.25 5.25 5.25 5 8.25 C3 10.25 3 10.25 0 10.5 C-3 10.25 -3 10.25 -5 8.25 C-5.25 5.25 -5.25 5.25 -5 2.25 C-3 0.25 -3 0.25 0 0 Z " fill="#EBF0ED" transform="translate(33,50.75)"/>
<path d="M0 0 C0.33 0.66 0.66 1.32 1 2 C-3.15626368 3.00926479 -7.04365094 3.10239579 -11.3125 3.0625 C-12.56675781 3.05347656 -13.82101563 3.04445313 -15.11328125 3.03515625 C-16.06589844 3.02355469 -17.01851562 3.01195313 -18 3 C-15.00255915 0.41887038 -12.93252923 -0.43827512 -9 -0.75 C-8.154375 -0.82734375 -7.30875 -0.9046875 -6.4375 -0.984375 C-4.05316606 -0.99965919 -2.23641867 -0.81868898 0 0 Z " fill="#D4DFD9" transform="translate(61,79)"/>
<path d="M0 0 C1.51553092 3.97450493 0.49888623 7.20481149 -0.4375 11.25 C-0.72496094 12.51328125 -1.01242188 13.7765625 -1.30859375 15.078125 C-1.53675781 16.04234375 -1.76492187 17.0065625 -2 18 C-4.49729916 14.25405125 -4.2965629 12.44844343 -4 8 C-3.125 4.125 -3.125 4.125 -2 1 C-1.34 0.67 -0.68 0.34 0 0 Z " fill="#F2F5F3" transform="translate(22,35)"/>
<path d="M0 0 C0.56847656 0.19335938 1.13695312 0.38671875 1.72265625 0.5859375 C6.45364938 2.18136423 11.18794425 3.66900586 16 5 C16 5.33 16 5.66 16 6 C9.01370081 6.50604984 4.79799884 6.0333905 -1 2 C-0.67 1.34 -0.34 0.68 0 0 Z " fill="#EDF2EF" transform="translate(34,75)"/>
<path d="M0 0 C6.75 0.75 6.75 0.75 9 3 C9.1953125 5.3828125 9.1953125 5.3828125 9.125 8.125 C9.10695313 9.03507812 9.08890625 9.94515625 9.0703125 10.8828125 C9.04710937 11.58148438 9.02390625 12.28015625 9 13 C8.67 13 8.34 13 8 13 C7.87625 11.88625 7.7525 10.7725 7.625 9.625 C7.3534187 5.96896323 7.3534187 5.96896323 5 4 C2.67724823 3.59952556 0.34260643 3.2602896 -2 3 C-1.34 2.01 -0.68 1.02 0 0 Z " fill="#F0F3F1" transform="translate(43,17)"/>
<path d="M0 0 C0.66 0.33 1.32 0.66 2 1 C1.401875 1.515625 0.80375 2.03125 0.1875 2.5625 C-2.42376742 5.47219798 -3.53306734 8.39934711 -5 12 C-5.66 12.66 -6.32 13.32 -7 14 C-7.66 13.67 -8.32 13.34 -9 13 C-7.47987323 7.59510481 -3.72614782 4.01507372 0 0 Z " fill="#D9E2DE" transform="translate(30,23)"/>
<path d="M0 0 C0.33 0 0.66 0 1 0 C1.66 4.95 2.32 9.9 3 15 C2.01 15.33 1.02 15.66 0 16 C-3.02272727 6.36505682 -3.02272727 6.36505682 -1 1.6875 C-0.67 1.130625 -0.34 0.57375 0 0 Z " fill="#E0E8E4" transform="translate(20,46)"/>
<path d="M0 0 C2.5 1.5625 2.5 1.5625 5 4 C5.3125 7.75 5.3125 7.75 5 11 C2.23609263 8.59660228 1.95934081 7.83736322 1 4 C-1.97 3.67 -4.94 3.34 -8 3 C-8 2.67 -8 2.34 -8 2 C-5.36 2 -2.72 2 0 2 C0 1.34 0 0.68 0 0 Z " fill="#CCD8D2" transform="translate(78,48)"/>
<path d="M0 0 C0.33 0 0.66 0 1 0 C1.33 4.29 1.66 8.58 2 13 C1.01 13.33 0.02 13.66 -1 14 C-1.93385816 11.19842552 -2.16354595 9.34552197 -2.1875 6.4375 C-2.20167969 5.65246094 -2.21585938 4.86742187 -2.23046875 4.05859375 C-2 2 -2 2 0 0 Z " fill="#D3DED8" transform="translate(52,21)"/>
<path d="M0 0 C1.65 0 3.3 0 5 0 C4.67 1.65 4.34 3.3 4 5 C2.68 4.67 1.36 4.34 0 4 C0 2.68 0 1.36 0 0 Z " fill="#213D5B" transform="translate(45,66)"/>
<path d="M0 0 C1.65 0 3.3 0 5 0 C4.67 1.65 4.34 3.3 4 5 C2.68 4.67 1.36 4.34 0 4 C0 2.68 0 1.36 0 0 Z " fill="#23405B" transform="translate(62,60)"/>
<path d="M0 0 C1.65 0 3.3 0 5 0 C4.67 1.65 4.34 3.3 4 5 C2.68 4.67 1.36 4.34 0 4 C0 2.68 0 1.36 0 0 Z " fill="#26425D" transform="translate(34,36)"/>
<path d="M0 0 C2.475 0.495 2.475 0.495 5 1 C4.67 2.32 4.34 3.64 4 5 C2.68 4.67 1.36 4.34 0 4 C0 2.68 0 1.36 0 0 Z " fill="#25405D" transform="translate(31,54)"/>
<path d="M0 0 C1.65 0.33 3.3 0.66 5 1 C5.33 1.99 5.66 2.98 6 4 C5.34 4 4.68 4 4 4 C3.67 4.66 3.34 5.32 3 6 C3 5.01 3 4.02 3 3 C1.68 3 0.36 3 -1 3 C-0.67 2.01 -0.34 1.02 0 0 Z " fill="#D6E0DB" transform="translate(36,33)"/>
<path d="M0 0 C2.125 0.9375 2.125 0.9375 4 2 C2.68 2.33 1.36 2.66 0 3 C0 3.99 0 4.98 0 6 C-0.99 6.33 -1.98 6.66 -3 7 C-2.625 4.0625 -2.625 4.0625 -2 1 C-1.34 0.67 -0.68 0.34 0 0 Z " fill="#DBE4DF" transform="translate(45,63)"/>
<path d="M0 0 C1.67542976 0.28604898 3.34385343 0.61781233 5 1 C5.33 2.65 5.66 4.3 6 6 C5.01 6.495 5.01 6.495 4 7 C3.87625 6.071875 3.87625 6.071875 3.75 5.125 C3.18741541 2.81562433 3.18741541 2.81562433 0.9375 1.75 C0.298125 1.5025 -0.34125 1.255 -1 1 C-0.67 0.67 -0.34 0.34 0 0 Z " fill="#FBFCFB" transform="translate(63,57)"/>
<path d="M0 0 C0.625 1.8125 0.625 1.8125 1 4 C0.01 5.485 0.01 5.485 -1 7 C-1.66 7 -2.32 7 -3 7 C-2.625 4.0625 -2.625 4.0625 -2 1 C-1.34 0.67 -0.68 0.34 0 0 Z " fill="#EAEFED" transform="translate(22,35)"/>
</svg>
